<svg width="160" height="270" viewBox="0 0 160 270" fill="none" xmlns="http://www.w3.org/2000/svg">
<path d="M145.32 205.738C145.32 215.689 145.32 230.279 145.32 251.771C145.32 262.935 136.79 268.135 129.407 268.135H31.2187C21.7614 268.135 15.2129 259.791 15.2129 250.341C15.2129 230.533 15.2129 214.969 15.2129 205.738" stroke="#DBFF01" stroke-width="3" stroke-linecap="round" stroke-linejoin="round"/>
<path d="M15.2129 57.5021C15.2129 49.4223 15.2129 37.3025 15.2129 21.1428C15.2129 9.94419 22.1937 1.86719 32.4625 1.86719H127.592C137.662 1.86719 145.32 10.4874 145.32 21.1428C145.32 37.8985 145.32 49.1243 145.32 57.5021" stroke="#DBFF01" stroke-width="3" stroke-linecap="round" stroke-linejoin="round"/>
<path d="M134.888 205.738C134.888 214.573 134.888 226.957 134.888 245.895C135.272 253.725 131.511 257.78 123.604 258.06L122.708 258.075H36.4994C27.981 258.075 23.9211 254.015 24.3197 245.895C24.3197 228.048 24.3197 214.662 24.3197 205.738" stroke="#DBFF01" stroke-width="3" stroke-linecap="round" stroke-linejoin="round"/>
<path d="M24.3184 57.5885C24.3184 49.4177 24.3184 38.102 24.3184 21.7603C24.3184 15.2059 27.9227 11.6016 35.1314 10.9473H50.8104C50.9414 16.0073 53.4714 18.5373 58.4004 18.5373H100.804C105.487 18.5373 108.004 16.254 108.357 11.6873L108.394 10.9473H124.073C130.982 11.5743 134.58 14.9107 134.868 20.9563L134.886 21.7603C134.886 38.3182 134.886 49.3096 134.886 57.5885" stroke="#DBFF01" stroke-width="3" stroke-linecap="round" stroke-linejoin="round"/>
<path d="M2.21875 102.575V66.8398H37.9538" stroke="#DBFF01" stroke-width="3" stroke-linecap="round" stroke-linejoin="round"/>
<path d="M158.152 102.575V66.8398H122.417" stroke="#DBFF01" stroke-width="3" stroke-linecap="round" stroke-linejoin="round"/>
<path d="M2.21875 161.052V196.787H37.9538" stroke="#DBFF01" stroke-width="3" stroke-linecap="round" stroke-linejoin="round"/>
<path d="M158.152 161.052V196.787H122.417" stroke="#DBFF01" stroke-width="3" stroke-linecap="round" stroke-linejoin="round"/>
<path fill-rule="evenodd" clip-rule="evenodd" d="M68.668 83.7168C73.1963 85.2827 77.6263 86.0656 81.9578 86.0656C86.2893 86.0656 90.7192 85.2827 95.2476 83.7168L112.82 91.923V179.833H51.0957V91.923L68.668 83.7168Z" stroke="#DBFF01" stroke-width="3" stroke-linecap="round" stroke-linejoin="round"/>
<path fill-rule="evenodd" clip-rule="evenodd" d="M112.818 91.9219L136.131 120.646L119.802 137.824L112.818 131.103V91.9219Z" stroke="#DBFF01" stroke-width="3" stroke-linecap="round" stroke-linejoin="round"/>
<path fill-rule="evenodd" clip-rule="evenodd" d="M51.0957 91.9219L27.7482 120.134L44.0298 137.824L51.0957 131.103V91.9219Z" stroke="#DBFF01" stroke-width="3" stroke-linecap="round" stroke-linejoin="round"/>
<path d="M68.6699 83.7168C69.1486 94.6316 73.5785 100.089 81.9597 100.089C90.341 100.089 94.7709 94.6316 95.2496 83.7168" stroke="#DBFF01" stroke-width="3" stroke-linecap="round" stroke-linejoin="round"/>
</svg>
