<svg width="242" height="254" viewBox="0 0 242 254" fill="none" xmlns="http://www.w3.org/2000/svg">
<path fill-rule="evenodd" clip-rule="evenodd" d="M129.742 88.9805L162.775 108.052V146.195L129.742 165.267L96.709 146.195V108.052L129.742 88.9805Z" stroke="#DBFF01" stroke-width="3" stroke-linecap="round" stroke-linejoin="round"/>
<path d="M162.775 108.678L129.742 127.749L96.709 108.678" stroke="#DBFF01" stroke-width="3" stroke-linecap="round" stroke-linejoin="round"/>
<path d="M129.729 128.371V165.264" stroke="#DBFF01" stroke-width="3" stroke-linecap="round" stroke-linejoin="round"/>
<path d="M69.416 106.349V99.916" stroke="#DBFF01" stroke-width="3" stroke-linecap="round" stroke-linejoin="round"/>
<path d="M188.52 106.349V79.0547H161.225" stroke="#DBFF01" stroke-width="3" stroke-linecap="round" stroke-linejoin="round"/>
<path d="M69.416 151.012V178.307H96.7107" stroke="#DBFF01" stroke-width="3" stroke-linecap="round" stroke-linejoin="round"/>
<path d="M188.52 151.012V178.307H161.225" stroke="#DBFF01" stroke-width="3" stroke-linecap="round" stroke-linejoin="round"/>
<path fill-rule="evenodd" clip-rule="evenodd" d="M226.71 2.13281C233.939 2.13281 239.8 7.99364 239.8 15.2233V37.9169C239.8 45.1466 233.939 51.0074 226.71 51.0074H155.242L135.57 65.7642L135.567 51.0074H127.163C119.933 51.0074 114.072 45.1466 114.072 37.9169V15.2233C114.072 7.99364 119.933 2.13281 127.163 2.13281H226.71Z" stroke="#DBFF01" stroke-width="3" stroke-linecap="round" stroke-linejoin="round"/>
<path fill-rule="evenodd" clip-rule="evenodd" d="M40.3148 251.865C33.0851 251.865 27.2243 246.004 27.2243 238.775V216.081C27.2243 208.851 33.0851 202.991 40.3148 202.991H86.286L106.641 188.234L106.644 202.991H115.048C122.278 202.991 128.139 208.851 128.139 216.081V238.775C128.139 246.004 122.278 251.865 115.048 251.865H40.3148Z" stroke="#DBFF01" stroke-width="3" stroke-linecap="round" stroke-linejoin="round"/>
<path fill-rule="evenodd" clip-rule="evenodd" d="M15.5081 45.5566C8.27843 45.5566 2.4176 51.4175 2.4176 58.6472V81.3407C2.4176 88.5704 8.27843 94.4313 15.5081 94.4313H62.1623L81.8343 109.188L81.8374 94.4313H90.2415C97.4712 94.4313 103.332 88.5704 103.332 81.3407V58.6472C103.332 51.4175 97.4712 45.5566 90.2415 45.5566H15.5081Z" stroke="#DBFF01" stroke-width="3" stroke-linecap="round" stroke-linejoin="round"/>
<path d="M141.997 39.3544C148.849 39.3544 154.403 33.7997 154.403 26.9477C154.403 20.0957 148.849 14.541 141.997 14.541C135.144 14.541 129.59 20.0957 129.59 26.9477C129.59 33.7997 135.144 39.3544 141.997 39.3544Z" stroke="#DBFF01" stroke-width="3" stroke-linecap="round" stroke-linejoin="round"/>
<path d="M163.705 19.2598H219.535" stroke="#DBFF01" stroke-width="3" stroke-linecap="round" stroke-linejoin="round"/>
<path d="M163.705 31.6641H194.722" stroke="#DBFF01" stroke-width="3" stroke-linecap="round" stroke-linejoin="round"/>
<path d="M42.7402 220.869H110.977" stroke="#DBFF01" stroke-width="3" stroke-linecap="round" stroke-linejoin="round"/>
<path d="M42.7402 233.273H86.1636" stroke="#DBFF01" stroke-width="3" stroke-linecap="round" stroke-linejoin="round"/>
<path d="M30.3344 82.7762C37.1864 82.7762 42.7411 77.2216 42.7411 70.3696C42.7411 63.5175 37.1864 57.9629 30.3344 57.9629C23.4824 57.9629 17.9277 63.5175 17.9277 70.3696C17.9277 77.2216 23.4824 82.7762 30.3344 82.7762Z" stroke="#DBFF01" stroke-width="3" stroke-linecap="round" stroke-linejoin="round"/>
<path d="M52.0469 62.6816H83.0636" stroke="#DBFF01" stroke-width="3" stroke-linecap="round" stroke-linejoin="round"/>
<path d="M52.0469 75.0879H83.0636" stroke="#DBFF01" stroke-width="3" stroke-linecap="round" stroke-linejoin="round"/>
<path d="M168.91 240.266C170.339 241.814 172.385 242.784 174.658 242.784C178.975 242.784 182.475 239.284 182.475 234.967C182.475 230.65 178.975 227.15 174.658 227.15L181.822 219.979H169.35" stroke="#DBFF01" stroke-width="3" stroke-linecap="round" stroke-linejoin="round"/>
<path d="M198.116 242.785C202.433 242.785 205.933 239.285 205.933 234.968C205.933 230.65 202.433 227.15 198.116 227.15C193.799 227.15 190.299 230.65 190.299 234.968C190.299 239.285 193.799 242.785 198.116 242.785Z" stroke="#DBFF01" stroke-width="3" stroke-linecap="round" stroke-linejoin="round"/>
<path d="M234.586 216.726C237.465 216.726 239.798 214.392 239.798 211.514C239.798 208.636 237.465 206.303 234.586 206.303C231.708 206.303 229.375 208.636 229.375 211.514C229.375 214.392 231.708 216.726 234.586 216.726Z" stroke="#DBFF01" stroke-width="3" stroke-linecap="round" stroke-linejoin="round"/>
<path d="M218.952 242.784C223.269 242.784 226.769 237.534 226.769 231.058C226.769 224.582 223.269 219.332 218.952 219.332C214.635 219.332 211.135 224.582 211.135 231.058C211.135 237.534 214.635 242.784 218.952 242.784Z" stroke="#DBFF01" stroke-width="3" stroke-linecap="round" stroke-linejoin="round"/>
<path d="M200.992 219.332C193.713 219.332 190.299 225.482 190.299 234.886" stroke="#DBFF01" stroke-width="3" stroke-linecap="round" stroke-linejoin="round"/>
</svg>
