<svg width="289" height="286" viewBox="0 0 289 286" fill="none" xmlns="http://www.w3.org/2000/svg">
<path d="M81.0399 180.186C101.54 215.694 146.943 227.86 182.451 207.359C217.958 186.859 230.124 141.456 209.624 105.948C189.124 70.4408 143.72 58.275 108.213 78.7753C72.7054 99.2755 60.5396 144.679 81.0399 180.186Z" stroke="#DBFF01" stroke-width="3" stroke-linecap="round" stroke-linejoin="round"/>
<path d="M195.347 256.727C198.926 262.927 206.854 265.052 213.054 261.472C219.254 257.893 221.378 249.965 217.799 243.765C214.219 237.565 206.291 235.441 200.092 239.02C193.892 242.6 191.767 250.528 195.347 256.727Z" stroke="#DBFF01" stroke-width="3" stroke-linecap="round" stroke-linejoin="round"/>
<path d="M70.5803 40.6298C74.1598 46.8296 82.0876 48.9539 88.2874 45.3744C94.4873 41.7949 96.6115 33.8671 93.032 27.6673C89.4525 21.4674 81.5248 19.3432 75.3249 22.9227C69.125 26.5022 67.0008 34.4299 70.5803 40.6298Z" stroke="#DBFF01" stroke-width="3" stroke-linecap="round" stroke-linejoin="round"/>
<path fill-rule="evenodd" clip-rule="evenodd" d="M28.4782 193.932C22.2784 197.512 20.1541 205.44 23.7336 211.64C27.3131 217.839 35.2409 219.964 41.4407 216.384C47.6406 212.805 49.7649 204.877 46.1854 198.677C42.6059 192.477 34.6781 190.353 28.4782 193.932Z" stroke="#DBFF01" stroke-width="3" stroke-linecap="round" stroke-linejoin="round"/>
<path fill-rule="evenodd" clip-rule="evenodd" d="M244.577 69.1668C238.377 72.7463 236.253 80.674 239.832 86.8739C243.412 93.0738 251.34 95.198 257.539 91.6185C263.739 88.039 265.863 80.1113 262.284 73.9114C258.704 67.7115 250.777 65.5873 244.577 69.1668Z" stroke="#DBFF01" stroke-width="3" stroke-linecap="round" stroke-linejoin="round"/>
<path fill-rule="evenodd" clip-rule="evenodd" d="M99.3742 259.352C97.5213 266.267 101.625 273.375 108.54 275.228C115.455 277.081 122.563 272.977 124.416 266.062C126.269 259.147 122.165 252.039 115.25 250.186C108.335 248.333 101.227 252.437 99.3742 259.352Z" stroke="#DBFF01" stroke-width="3" stroke-linecap="round" stroke-linejoin="round"/>
<path fill-rule="evenodd" clip-rule="evenodd" d="M163.961 18.3307C162.108 25.2457 166.212 32.3536 173.127 34.2065C180.042 36.0593 187.15 31.9556 189.003 25.0406C190.856 18.1255 186.752 11.0177 179.837 9.16481C172.922 7.31192 165.814 11.4156 163.961 18.3307Z" stroke="#DBFF01" stroke-width="3" stroke-linecap="round" stroke-linejoin="round"/>
<path fill-rule="evenodd" clip-rule="evenodd" d="M261.347 187.007C268.262 188.86 275.37 184.756 277.222 177.841C279.075 170.926 274.972 163.818 268.057 161.966C261.142 160.113 254.034 164.216 252.181 171.131C250.328 178.047 254.432 185.154 261.347 187.007Z" stroke="#DBFF01" stroke-width="3" stroke-linecap="round" stroke-linejoin="round"/>
<path fill-rule="evenodd" clip-rule="evenodd" d="M20.3243 122.429C27.2393 124.282 34.3472 120.178 36.2 113.263C38.0529 106.348 33.9492 99.2404 27.0342 97.3875C20.1191 95.5346 13.0113 99.6383 11.1584 106.553C9.30552 113.468 13.4092 120.576 20.3243 122.429Z" stroke="#DBFF01" stroke-width="3" stroke-linecap="round" stroke-linejoin="round"/>
<path d="M80.9863 180.097C92.5097 200.057 130.636 199.618 166.143 179.118C201.651 158.617 221.094 125.819 209.57 105.859" stroke="#DBFF01" stroke-width="3" stroke-linecap="round" stroke-linejoin="round"/>
<path d="M109.14 163.843C129.641 199.351 162.44 218.794 182.399 207.27C202.358 195.747 201.919 157.621 181.419 122.113" stroke="#DBFF01" stroke-width="3" stroke-linecap="round" stroke-linejoin="round"/>
<path d="M239.876 86.9531L46.2299 198.755" stroke="#DBFF01" stroke-width="3" stroke-linecap="round" stroke-linejoin="round"/>
<path d="M251.841 171.596L217.144 162.747" stroke="#DBFF01" stroke-width="3" stroke-linecap="round" stroke-linejoin="round"/>
<path d="M73.4807 124.305L36.2597 114.008" stroke="#DBFF01" stroke-width="3" stroke-linecap="round" stroke-linejoin="round"/>
<path d="M115.715 249.829L124.648 214.543" stroke="#DBFF01" stroke-width="3" stroke-linecap="round" stroke-linejoin="round"/>
<path d="M162.469 70.833L172.228 34.2578" stroke="#DBFF01" stroke-width="3" stroke-linecap="round" stroke-linejoin="round"/>
<path d="M106.552 79.7348L87.1084 46.0566" stroke="#DBFF01" stroke-width="3" stroke-linecap="round" stroke-linejoin="round"/>
<path d="M198.91 239.702L142.965 142.803" stroke="#DBFF01" stroke-width="3" stroke-linecap="round" stroke-linejoin="round"/>
<path d="M257.54 91.6211L263.626 160.492" stroke="#DBFF01" stroke-width="3" stroke-linecap="round" stroke-linejoin="round"/>
<path d="M261.35 187.01L216.165 240.935" stroke="#DBFF01" stroke-width="3" stroke-linecap="round" stroke-linejoin="round"/>
<path d="M193.713 253.897L125.243 261.878" stroke="#DBFF01" stroke-width="3" stroke-linecap="round" stroke-linejoin="round"/>
<path d="M100.792 255.392L45.5652 214.002" stroke="#DBFF01" stroke-width="3" stroke-linecap="round" stroke-linejoin="round"/>
<path d="M32.6068 191.552L24.1426 123.307" stroke="#DBFF01" stroke-width="3" stroke-linecap="round" stroke-linejoin="round"/>
<path d="M31.2041 98.9961L73.1084 45.002" stroke="#DBFF01" stroke-width="3" stroke-linecap="round" stroke-linejoin="round"/>
<path d="M95.5593 32.0397L163.163 22.8095" stroke="#DBFF01" stroke-width="3" stroke-linecap="round" stroke-linejoin="round"/>
<path d="M189.521 24.2717L244.576 69.1676" stroke="#DBFF01" stroke-width="3" stroke-linecap="round" stroke-linejoin="round"/>
</svg>
