<svg width="172" height="262" viewBox="0 0 172 262" fill="none" xmlns="http://www.w3.org/2000/svg">
<path fill-rule="evenodd" clip-rule="evenodd" d="M90.7114 12.9576C130.201 14.1707 145.004 29.7913 155.184 60.1798C165.364 90.5682 170.919 203.564 169.998 225.204C169.077 246.844 156.196 252.796 145.682 256.084C135.169 259.372 41.1875 259.29 26.414 256.084C11.6406 252.877 3.40234 237.887 3.40234 225.204L3.42577 223.756C3.92903 204.903 12.4823 83.2033 23.524 55.8129C34.9073 27.5753 51.2218 11.7444 90.7114 12.9576Z" stroke="#DBFF01" stroke-width="3" stroke-linecap="round" stroke-linejoin="round"/>
<path d="M3.40234 225.203C8.39612 232.399 14.3604 236.563 21.2952 237.694C31.6974 239.39 144.267 241.546 152.814 239.62C158.263 238.392 163.774 235.352 169.346 230.499" stroke="#DBFF01" stroke-width="3" stroke-linecap="round" stroke-linejoin="round"/>
<path d="M136.538 240.381C134.392 199.679 133.318 169.885 133.318 151C133.318 132.116 137.8 102.856 146.763 63.2202C126.486 49.0383 107.211 41.9473 88.938 41.9473C70.6652 41.9473 51.1293 49.0383 30.3301 63.2202C41.0058 105.772 46.3437 135.032 46.3437 151C46.3437 166.969 44.4561 196.04 40.681 238.214" stroke="#DBFF01" stroke-width="3" stroke-linecap="round" stroke-linejoin="round"/>
<path fill-rule="evenodd" clip-rule="evenodd" d="M92.8089 65.587L105.358 78.1358C106.513 79.2909 106.513 81.1636 105.358 82.3187L92.8089 94.8675C91.6539 96.0225 89.7811 96.0225 88.626 94.8675L76.0772 82.3187C74.9222 81.1636 74.9222 79.2909 76.0772 78.1358L88.626 65.587C89.7811 64.4319 91.6539 64.4319 92.8089 65.587Z" stroke="#DBFF01" stroke-width="3" stroke-linecap="round" stroke-linejoin="round"/>
<path d="M162.07 235.505C160.367 198.83 159.516 173.507 159.516 159.536C159.516 145.565 160.367 124.744 162.07 97.0742" stroke="#DBFF01" stroke-width="3" stroke-linecap="round" stroke-linejoin="round"/>
<path d="M15.5638 235.387C17.2668 198.712 18.1183 173.389 18.1183 159.418C18.1183 145.447 16.6445 125.199 14.9414 97.5293" stroke="#DBFF01" stroke-width="3" stroke-linecap="round" stroke-linejoin="round"/>
<path d="M17.6445 184.678C22.7106 143.741 25.2437 117.388 25.2437 105.617C25.2437 87.9603 18.8329 56.7928 40.3138 44.7987C61.7946 32.8046 73.9444 31.0586 90.7193 31.0586C107.494 31.0586 128.253 35.8594 141.113 48.6532C153.973 61.447 152.346 93.9204 152.346 105.617C152.346 113.414 154.912 140.346 160.044 186.411" stroke="#DBFF01" stroke-width="3" stroke-linecap="round" stroke-linejoin="round"/>
<path d="M45.8887 238.694C74.0388 219.699 87.6629 206.251 86.761 198.35C85.4082 186.498 54.6179 185.488 54.6179 172.867C54.6179 160.246 81.1596 154.416 92.3492 148.3C103.539 142.185 130.205 129.988 130.205 117.412C130.205 110.737 117.042 107.88 90.7158 108.839" stroke="#DBFF01" stroke-width="3" stroke-linecap="round" stroke-linejoin="round"/>
<path d="M130.205 238.694C102.055 219.699 88.4312 206.251 89.3331 198.35C90.6859 186.498 121.476 185.488 121.476 172.867C121.476 160.246 94.9345 154.416 83.7449 148.3C72.5553 142.185 45.8887 129.988 45.8887 117.412C45.8887 110.737 60.8311 107.88 90.7158 108.839" stroke="#DBFF01" stroke-width="3" stroke-linecap="round" stroke-linejoin="round"/>
<path d="M104.211 12.8889C104.211 10.2227 104.211 7.82341 104.211 5.69088C104.211 2.49209 123.434 3.98413 124.858 5.69088C125.808 6.82872 126.198 11.6474 126.028 20.1469" stroke="#DBFF01" stroke-width="3" stroke-linecap="round" stroke-linejoin="round"/>
<path d="M70.3794 13.5119C70.3794 10.8458 70.3794 8.44646 70.3794 6.31393C70.3794 3.11514 51.1563 4.60718 49.732 6.31393C48.7824 7.45176 48.3924 12.2704 48.562 20.77" stroke="#DBFF01" stroke-width="3" stroke-linecap="round" stroke-linejoin="round"/>
</svg>
