<svg width="215" height="301" viewBox="0 0 215 301" fill="none" xmlns="http://www.w3.org/2000/svg">
<path d="M173.235 294.748C165.37 271.994 153.758 257.657 138.401 251.736C132.703 249.54 124.294 247.485 113.172 245.571C100.807 242.289 91.6701 239.523 85.7608 237.271C71.6695 231.902 48.777 211.732 38.6265 206.977C28.4761 202.221 16.2019 196.928 8.28533 192.408C0.368735 187.889 0.368734 169.981 22.0242 175.183C43.6797 180.385 53.7023 186.424 60.764 187.634C67.8256 188.844 72.6098 186.355 85.7608 187.634C94.5281 188.487 103.665 192.254 113.172 198.937" stroke="#DBFF01" stroke-width="3" stroke-linecap="round" stroke-linejoin="round"/>
<path d="M40.597 180.385C24.8791 151.55 15.727 133.257 13.1407 125.506C10.7213 118.255 13.9241 114.868 17.8649 115.035C20.2428 115.136 22.8946 116.905 24.7273 118.837C27.9739 122.261 41.431 140.511 65.0987 173.588" stroke="#DBFF01" stroke-width="3" stroke-linecap="round" stroke-linejoin="round"/>
<path d="M78.2457 162.807C48.8991 123.433 33.1548 102.863 31.013 101.099C27.8002 98.452 22.2077 97.2359 19.0159 101.099C16.8879 103.674 16.8879 108.318 19.0159 115.03" stroke="#DBFF01" stroke-width="3" stroke-linecap="round" stroke-linejoin="round"/>
<path d="M133.246 159.656C142.481 164.925 151.048 168.326 160.857 176.077C173.57 186.121 180.421 202.533 187.255 212.151C194.088 221.769 212.159 250.521 212.608 252.655C213.057 254.79 213.915 278.759 202.823 286.23C196.098 290.76 182.413 297.397 173.235 294.745" stroke="#DBFF01" stroke-width="3" stroke-linecap="round" stroke-linejoin="round"/>
<path fill-rule="evenodd" clip-rule="evenodd" d="M35.0101 79.6942C35.0101 121.552 68.9354 155.465 110.78 155.465C152.632 155.465 186.551 121.552 186.551 79.6942C186.551 37.8558 152.632 3.92383 110.78 3.92383C68.9354 3.92383 35.0101 37.8558 35.0101 79.6942Z" stroke="#DBFF01" stroke-width="3" stroke-linecap="round" stroke-linejoin="round"/>
<path fill-rule="evenodd" clip-rule="evenodd" d="M35.0101 79.6951C35.0101 95.392 68.9354 108.109 110.78 108.109C152.632 108.109 186.551 95.392 186.551 79.6951C186.551 64.0057 152.632 51.2812 110.78 51.2812C68.9354 51.2812 35.0101 64.0057 35.0101 79.6951Z" stroke="#DBFF01" stroke-width="3" stroke-linecap="round" stroke-linejoin="round"/>
<path d="M35.0117 79.6895H110.782V155.46" stroke="#DBFF01" stroke-width="3" stroke-linecap="round" stroke-linejoin="round"/>
<path d="M58.6309 135.115L109.244 178.95L160.995 136.477" stroke="#DBFF01" stroke-width="3" stroke-linecap="round" stroke-linejoin="round"/>
</svg>
