<svg width="303" height="204" viewBox="0 0 303 204" fill="none" xmlns="http://www.w3.org/2000/svg">
<path d="M40.4809 162.953H39.176C32.5236 162.953 27.1309 157.561 27.1309 150.908V15.4006C27.1309 8.74825 32.5236 3.35547 39.176 3.35547H252.977C259.629 3.35547 265.022 8.74825 265.022 15.4006C265.022 39.1888 265.022 57.03 265.022 68.9241" stroke="#DBFF01" stroke-width="3" stroke-linecap="round" stroke-linejoin="round"/>
<path d="M240.481 170.293C235.734 170.293 230.264 170.293 224.072 170.293" stroke="#DBFF01" stroke-width="3" stroke-linecap="round" stroke-linejoin="round"/>
<path d="M40.3204 163.029H3.77871V165.367C9.26309 168.65 21.2232 170.291 39.6591 170.291C52.2956 170.291 73.1586 170.291 102.248 170.291" stroke="#DBFF01" stroke-width="3" stroke-linecap="round" stroke-linejoin="round"/>
<path d="M240.47 153.552H224.229M102.316 153.552H35.8887V15.0332H256.281V68.3741" stroke="#DBFF01" stroke-width="3" stroke-linecap="round" stroke-linejoin="round"/>
<path d="M207.642 36.2383H118.861C109.781 36.2383 102.42 43.5991 102.42 52.6792V184.631C102.42 193.711 109.781 201.072 118.861 201.072H207.642C216.722 201.072 224.083 193.711 224.083 184.631V52.6792C224.083 43.5991 216.722 36.2383 207.642 36.2383Z" stroke="#DBFF01" stroke-width="3" stroke-linecap="round" stroke-linejoin="round"/>
<path d="M212.948 51.9375H113.56C111.744 51.9375 110.271 53.4097 110.271 55.2257V176.199C110.271 178.015 111.744 179.487 113.56 179.487H212.948C214.764 179.487 216.236 178.015 216.236 176.199V55.2257C216.236 53.4097 214.764 51.9375 212.948 51.9375Z" stroke="#DBFF01" stroke-width="3" stroke-linecap="round" stroke-linejoin="round"/>
<path d="M162.565 194.665C164.908 194.665 166.808 192.766 166.808 190.423C166.808 188.079 164.908 186.18 162.565 186.18C160.222 186.18 158.322 188.079 158.322 190.423C158.322 192.766 160.222 194.665 162.565 194.665Z" stroke="#DBFF01" stroke-width="3" stroke-linecap="round" stroke-linejoin="round"/>
<path fill-rule="evenodd" clip-rule="evenodd" d="M240.527 78.6426C240.527 73.1109 245.204 69.1211 249.933 69.1211C254.662 69.1211 286.182 69.1211 290.819 69.1211C295.457 69.1211 300.445 73.3792 300.445 78.6426C300.445 83.906 300.445 187.05 300.445 192.565C300.445 198.08 295.056 200.648 291.655 200.648C288.255 200.648 253.715 200.648 249.36 200.648C245.005 200.648 240.527 196.526 240.527 191.858C240.527 187.19 240.527 84.1744 240.527 78.6426Z" stroke="#DBFF01" stroke-width="3" stroke-linecap="round" stroke-linejoin="round"/>
<path d="M240.527 92.1393C240.527 87.4696 243.742 84.1016 248.471 84.1016C253.2 84.1016 287.643 84.1016 292.281 84.1016C296.918 84.1016 300.445 87.6961 300.445 92.1393" stroke="#DBFF01" stroke-width="3" stroke-linecap="round" stroke-linejoin="round"/>
<path d="M265.846 76.6855H276.608" stroke="#DBFF01" stroke-width="3" stroke-linecap="round" stroke-linejoin="round"/>
</svg>
