<svg width="296" height="268" viewBox="0 0 296 268" fill="none" xmlns="http://www.w3.org/2000/svg">
<path d="M147.764 136.542C155.657 136.542 162.056 133.698 162.056 130.19C162.056 126.682 155.657 123.838 147.764 123.838C139.87 123.838 133.472 126.682 133.472 130.19C133.472 133.698 139.87 136.542 147.764 136.542Z" stroke="#DBFF01" stroke-width="3" stroke-linecap="round" stroke-linejoin="round"/>
<path fill-rule="evenodd" clip-rule="evenodd" d="M108.062 3.7832H184.285L203.341 54.5989H92.1816L108.062 3.7832Z" stroke="#DBFF01" stroke-width="3" stroke-linecap="round" stroke-linejoin="round"/>
<path fill-rule="evenodd" clip-rule="evenodd" d="M108.062 213.398H184.285L203.341 264.214H92.1816L108.062 213.398Z" stroke="#DBFF01" stroke-width="3" stroke-linecap="round" stroke-linejoin="round"/>
<path fill-rule="evenodd" clip-rule="evenodd" d="M92.6273 92.7109H202.793L244.63 175.286H50.8955L92.6273 92.7109Z" stroke="#DBFF01" stroke-width="3" stroke-linecap="round" stroke-linejoin="round"/>
<path fill-rule="evenodd" clip-rule="evenodd" d="M85.8284 76.832H209.692L292.267 197.519H3.25293L85.8284 76.832Z" stroke="#DBFF01" stroke-width="3" stroke-linecap="round" stroke-linejoin="round"/>
<path d="M157.341 34.334L147.813 24.806L138.285 34.334" stroke="#DBFF01" stroke-width="3" stroke-linecap="round" stroke-linejoin="round"/>
<path d="M138.091 225.055L147.619 234.583L157.147 225.055" stroke="#DBFF01" stroke-width="3" stroke-linecap="round" stroke-linejoin="round"/>
<path d="M147.764 234.048V27.4453" stroke="#DBFF01" stroke-width="3" stroke-linecap="round" stroke-linejoin="round"/>
<path d="M114.414 130.186H181.11" stroke="#DBFF01" stroke-width="3" stroke-linecap="round" stroke-linejoin="round"/>
</svg>
