<svg width="348" height="224" viewBox="0 0 348 224" fill="none" xmlns="http://www.w3.org/2000/svg">
<path d="M104.392 169.732C75.8538 171.354 53.8438 181.724 53.8438 194.275C53.8438 207.951 79.9765 219.037 112.213 219.037C144.449 219.037 170.582 207.951 170.582 194.275C170.582 182.692 151.838 172.967 126.517 170.261" stroke="#DBFF01" stroke-width="3" stroke-linecap="round" stroke-linejoin="round"/>
<path d="M104.211 184.326C95.4599 185.827 89.2246 189.716 89.2246 194.278C89.2246 200.139 99.5193 204.89 112.219 204.89C124.918 204.89 135.212 200.139 135.212 194.278C135.212 190.212 130.26 186.681 122.988 184.899" stroke="#DBFF01" stroke-width="3" stroke-linecap="round" stroke-linejoin="round"/>
<path d="M268.454 135.219C244.564 138.32 227.189 147.75 227.189 158.901C227.189 172.577 253.322 183.664 285.559 183.664C317.795 183.664 343.928 172.577 343.928 158.901C343.928 147.669 326.302 138.184 302.145 135.152" stroke="#DBFF01" stroke-width="3" stroke-linecap="round" stroke-linejoin="round"/>
<path d="M285.554 169.512C298.254 169.512 308.548 164.761 308.548 158.9C308.548 153.039 298.254 148.287 285.554 148.287C272.855 148.287 262.561 153.039 262.561 158.9C262.561 164.761 272.855 169.512 285.554 169.512Z" stroke="#DBFF01" stroke-width="3" stroke-linecap="round" stroke-linejoin="round"/>
<path d="M55.6144 116.45C83.9434 116.45 106.909 106.947 106.909 95.2252C106.909 83.5028 83.9434 74 55.6144 74C27.2855 74 4.32031 83.5028 4.32031 95.2252C4.32031 106.947 27.2855 116.45 55.6144 116.45Z" stroke="#DBFF01" stroke-width="3" stroke-linecap="round" stroke-linejoin="round"/>
<path d="M55.6107 105.842C66.3562 105.842 75.0671 101.091 75.0671 95.2298C75.0671 89.3686 66.3562 84.6172 55.6107 84.6172C44.8652 84.6172 36.1543 89.3686 36.1543 95.2298C36.1543 101.091 44.8652 105.842 55.6107 105.842Z" stroke="#DBFF01" stroke-width="3" stroke-linecap="round" stroke-linejoin="round"/>
<path d="M200.656 109.375C223.124 109.375 241.338 101.456 241.338 91.6876C241.338 81.919 223.124 74 200.656 74C178.188 74 159.975 81.919 159.975 91.6876C159.975 101.456 178.188 109.375 200.656 109.375Z" stroke="#DBFF01" stroke-width="3" stroke-linecap="round" stroke-linejoin="round"/>
<path d="M200.655 98.7673C209.447 98.7673 216.574 95.5997 216.574 91.6922C216.574 87.7848 209.447 84.6172 200.655 84.6172C191.863 84.6172 184.736 87.7848 184.736 91.6922C184.736 95.5997 191.863 98.7673 200.655 98.7673Z" stroke="#DBFF01" stroke-width="3" stroke-linecap="round" stroke-linejoin="round"/>
<path d="M112.219 194.276C127.819 67.4958 157.459 4.10547 201.138 4.10547C240.215 4.10547 267.046 43.4434 281.63 122.119" stroke="#DBFF01" stroke-width="3" stroke-linecap="round" stroke-linejoin="round"/>
<path d="M268.703 111.172L281.849 122.879L290.289 107.753" stroke="#DBFF01" stroke-width="3" stroke-linecap="round" stroke-linejoin="round"/>
</svg>
