<svg width="347" height="328" viewBox="0 0 347 328" fill="none" xmlns="http://www.w3.org/2000/svg">
<path d="M63.6943 100.704L80.7323 83.6661L124.711 39.6875C133.676 30.7225 146.743 27.2213 158.989 30.5027C163.328 31.6653 166.582 32.5372 168.751 33.1185" stroke="#DBFF01" stroke-width="3" stroke-linecap="round" stroke-linejoin="round"/>
<path d="M168.561 33.0645L215.745 45.7128C222.432 47.5045 233.485 50.4662 248.906 54.5981C261.152 57.8795 270.718 67.445 273.999 79.6914L298.091 169.605C301.373 181.852 297.871 194.919 288.907 203.884C277.997 214.793 269.815 222.975 264.36 228.43" stroke="#DBFF01" stroke-width="3" stroke-linecap="round" stroke-linejoin="round"/>
<path d="M264.363 228.425L247.31 245.478C242.702 250.086 234.628 258.16 223.088 269.701C214.123 278.666 201.056 282.167 188.809 278.886L98.8954 254.793C86.649 251.512 77.0835 241.946 73.8021 229.7L49.7097 139.786C46.4283 127.54 49.9295 114.473 58.8945 105.508L63.6995 100.703" stroke="#DBFF01" stroke-width="3" stroke-linecap="round" stroke-linejoin="round"/>
<path d="M63.6409 264.954L150.332 178.263C162.567 164.141 168 153.132 166.629 145.236C165.259 137.34 163.965 133.058 162.747 132.389" stroke="#DBFF01" stroke-width="3" stroke-linecap="round" stroke-linejoin="round"/>
<path d="M162.747 132.392C171.735 137.663 181.806 134.722 192.958 123.57" stroke="#DBFF01" stroke-width="3" stroke-linecap="round" stroke-linejoin="round"/>
<path d="M196.179 104.484C191.461 93.6924 193.133 84.2653 201.195 76.2031" stroke="#DBFF01" stroke-width="3" stroke-linecap="round" stroke-linejoin="round"/>
<path d="M97.8516 134.41C86.5333 145.847 81.5822 155.534 82.9984 163.469C85.1226 175.372 89.6916 179.941 99.8653 190.115C106.648 196.897 113.084 203.333 119.173 209.423" stroke="#DBFF01" stroke-width="3" stroke-linecap="round" stroke-linejoin="round"/>
<path d="M138.853 189.679C150.602 201.428 158.916 209.742 163.794 214.62C176.534 227.36 190.706 235.906 200.466 237.023C216.089 238.813 226.948 236.66 233.042 230.566" stroke="#DBFF01" stroke-width="3" stroke-linecap="round" stroke-linejoin="round"/>
<path d="M256.15 164.456L228.268 192.338C217.074 203.449 206.124 205.51 195.417 198.521C184.71 191.531 172.521 181.201 158.849 167.528" stroke="#DBFF01" stroke-width="3" stroke-linecap="round" stroke-linejoin="round"/>
<path d="M98.3823 133.884C102.582 138.084 109.391 138.084 113.59 133.884C117.79 129.685 117.79 122.876 113.59 118.676C109.391 114.477 102.582 114.477 98.3823 118.676C94.1827 122.876 94.1827 129.685 98.3823 133.884Z" stroke="#DBFF01" stroke-width="3" stroke-linecap="round" stroke-linejoin="round"/>
<path d="M147.462 132.41C151.662 136.609 158.471 136.609 162.67 132.41C166.87 128.21 166.87 121.401 162.67 117.202C158.471 113.002 151.662 113.002 147.462 117.202C143.263 121.401 143.263 128.21 147.462 132.41Z" stroke="#DBFF01" stroke-width="3" stroke-linecap="round" stroke-linejoin="round"/>
<path d="M192.976 122.892C197.176 127.092 203.985 127.092 208.184 122.892C212.384 118.693 212.384 111.884 208.184 107.684C203.985 103.485 197.176 103.485 192.976 107.684C188.776 111.884 188.776 118.693 192.976 122.892Z" stroke="#DBFF01" stroke-width="3" stroke-linecap="round" stroke-linejoin="round"/>
<path d="M201.195 76.2027C205.394 80.4023 212.203 80.4023 216.403 76.2027C220.602 72.0031 220.602 65.1942 216.403 60.9947C212.203 56.7951 205.394 56.7951 201.195 60.9947C196.995 65.1942 196.995 72.0031 201.195 76.2027Z" stroke="#DBFF01" stroke-width="3" stroke-linecap="round" stroke-linejoin="round"/>
<path d="M211.119 119.579C221.911 124.297 231.338 122.625 239.4 114.562" stroke="#DBFF01" stroke-width="3" stroke-linecap="round" stroke-linejoin="round"/>
<path d="M239.397 114.559C235.197 110.36 235.197 103.551 239.397 99.351C243.596 95.1515 250.405 95.1515 254.605 99.351C258.805 103.551 258.805 110.36 254.605 114.559C250.405 118.759 243.596 118.759 239.397 114.559Z" stroke="#DBFF01" stroke-width="3" stroke-linecap="round" stroke-linejoin="round"/>
<path d="M146.772 116.838C142.055 106.046 143.727 96.6189 151.789 88.5566" stroke="#DBFF01" stroke-width="3" stroke-linecap="round" stroke-linejoin="round"/>
<path d="M152.376 88.0738C156.576 92.2734 163.385 92.2734 167.584 88.0738C171.784 83.8742 171.784 77.0653 167.584 72.8657C163.385 68.6662 156.576 68.6662 152.376 72.8657C148.177 77.0653 148.177 83.8742 152.376 88.0738Z" stroke="#DBFF01" stroke-width="3" stroke-linecap="round" stroke-linejoin="round"/>
<path d="M256.46 163.877C260.66 168.076 267.469 168.076 271.668 163.877C275.868 159.677 275.868 152.868 271.668 148.668C267.469 144.469 260.66 144.469 256.46 148.668C252.261 152.868 252.261 159.677 256.46 163.877Z" stroke="#DBFF01" stroke-width="3" stroke-linecap="round" stroke-linejoin="round"/>
<path d="M233.751 229.808C237.951 234.008 244.76 234.008 248.959 229.808C253.159 225.609 253.159 218.8 248.959 214.6C244.76 210.401 237.951 210.401 233.751 214.6C229.552 218.8 229.552 225.609 233.751 229.808Z" stroke="#DBFF01" stroke-width="3" stroke-linecap="round" stroke-linejoin="round"/>
<path d="M47.8003 280.285C51.9999 284.484 58.8087 284.484 63.0083 280.285C67.2079 276.085 67.2079 269.276 63.0083 265.077C58.8087 260.877 51.9999 260.877 47.8003 265.077C43.6007 269.276 43.6007 276.085 47.8003 280.285Z" stroke="#DBFF01" stroke-width="3" stroke-linecap="round" stroke-linejoin="round"/>
</svg>
