<svg width="256" height="288" viewBox="0 0 256 288" fill="none" xmlns="http://www.w3.org/2000/svg">
<path fill-rule="evenodd" clip-rule="evenodd" d="M129.358 121.02L150.454 142.116L129.358 163.212L108.262 142.116L129.358 121.02Z" stroke="#DBFF01" stroke-width="3" stroke-linecap="round" stroke-linejoin="round"/>
<path fill-rule="evenodd" clip-rule="evenodd" d="M132.523 113.635L157.838 138.95C159.586 140.698 159.586 143.531 157.838 145.279L132.523 170.594C130.775 172.342 127.942 172.342 126.194 170.594L100.879 145.279C99.1314 143.531 99.1314 140.698 100.879 138.95L126.194 113.635C127.942 111.887 130.775 111.887 132.523 113.635Z" stroke="#DBFF01" stroke-width="3" stroke-linecap="round" stroke-linejoin="round"/>
<path d="M138.107 119.213L142.035 115.285" stroke="#DBFF01" stroke-width="3" stroke-linecap="round" stroke-linejoin="round"/>
<path d="M145.227 126.334L149.155 122.406" stroke="#DBFF01" stroke-width="3" stroke-linecap="round" stroke-linejoin="round"/>
<path d="M152.348 133.453L156.276 129.525" stroke="#DBFF01" stroke-width="3" stroke-linecap="round" stroke-linejoin="round"/>
<path d="M152.912 150.715L156.84 154.643" stroke="#DBFF01" stroke-width="3" stroke-linecap="round" stroke-linejoin="round"/>
<path d="M145.793 157.834L149.721 161.762" stroke="#DBFF01" stroke-width="3" stroke-linecap="round" stroke-linejoin="round"/>
<path d="M138.674 164.953L142.602 168.881" stroke="#DBFF01" stroke-width="3" stroke-linecap="round" stroke-linejoin="round"/>
<path d="M116.871 114.674L120.799 118.602" stroke="#DBFF01" stroke-width="3" stroke-linecap="round" stroke-linejoin="round"/>
<path d="M109.752 121.793L113.68 125.721" stroke="#DBFF01" stroke-width="3" stroke-linecap="round" stroke-linejoin="round"/>
<path d="M102.633 128.912L106.561 132.84" stroke="#DBFF01" stroke-width="3" stroke-linecap="round" stroke-linejoin="round"/>
<path d="M102.443 154.783L106.371 150.855" stroke="#DBFF01" stroke-width="3" stroke-linecap="round" stroke-linejoin="round"/>
<path d="M109.562 161.903L113.49 157.975" stroke="#DBFF01" stroke-width="3" stroke-linecap="round" stroke-linejoin="round"/>
<path d="M116.684 169.024L120.612 165.096" stroke="#DBFF01" stroke-width="3" stroke-linecap="round" stroke-linejoin="round"/>
<path fill-rule="evenodd" clip-rule="evenodd" d="M250.985 144.942C250.985 144.942 195.693 209.639 127.471 209.639C59.2482 209.639 3.95703 144.942 3.95703 144.942C3.95703 144.942 59.2482 80.2441 127.471 80.2441C195.693 80.2441 250.985 144.942 250.985 144.942Z" stroke="#DBFF01" stroke-width="3" stroke-linecap="round" stroke-linejoin="round"/>
<path fill-rule="evenodd" clip-rule="evenodd" d="M171.591 142.001C171.591 166.373 151.84 186.113 127.479 186.113C103.118 186.113 83.3672 166.373 83.3672 142.001C83.3672 117.629 103.118 97.8887 127.479 97.8887C151.84 97.8887 171.591 117.629 171.591 142.001Z" stroke="#DBFF01" stroke-width="3" stroke-linecap="round" stroke-linejoin="round"/>
<path fill-rule="evenodd" clip-rule="evenodd" d="M138.191 14.1961C138.191 20.083 133.42 24.8512 127.536 24.8512C121.652 24.8512 116.881 20.083 116.881 14.1961C116.881 8.30917 121.652 3.54102 127.536 3.54102C133.42 3.54102 138.191 8.30917 138.191 14.1961Z" stroke="#DBFF01" stroke-width="3" stroke-linecap="round" stroke-linejoin="round"/>
<path fill-rule="evenodd" clip-rule="evenodd" d="M209.216 49.7195C209.216 55.6065 204.446 60.3746 198.561 60.3746C192.677 60.3746 187.906 55.6065 187.906 49.7195C187.906 43.8326 192.677 39.0645 198.561 39.0645C204.446 39.0645 209.216 43.8326 209.216 49.7195Z" stroke="#DBFF01" stroke-width="3" stroke-linecap="round" stroke-linejoin="round"/>
<path d="M127.471 80.2511V25.2012" stroke="#DBFF01" stroke-width="3" stroke-linecap="round" stroke-linejoin="round"/>
<path fill-rule="evenodd" clip-rule="evenodd" d="M67.1559 49.7195C67.1559 55.6065 62.3851 60.3746 56.5008 60.3746C50.6165 60.3746 45.8457 55.6065 45.8457 49.7195C45.8457 43.8326 50.6165 39.0645 56.5008 39.0645C62.3851 39.0645 67.1559 43.8326 67.1559 49.7195Z" stroke="#DBFF01" stroke-width="3" stroke-linecap="round" stroke-linejoin="round"/>
<path fill-rule="evenodd" clip-rule="evenodd" d="M138.191 273.473C138.191 279.36 133.42 284.129 127.536 284.129C121.652 284.129 116.881 279.36 116.881 273.473C116.881 267.586 121.652 262.818 127.536 262.818C133.42 262.818 138.191 267.586 138.191 273.473Z" stroke="#DBFF01" stroke-width="3" stroke-linecap="round" stroke-linejoin="round"/>
<path fill-rule="evenodd" clip-rule="evenodd" d="M209.216 237.96C209.216 243.847 204.446 248.615 198.561 248.615C192.677 248.615 187.906 243.847 187.906 237.96C187.906 232.073 192.677 227.305 198.561 227.305C204.446 227.305 209.216 232.073 209.216 237.96Z" stroke="#DBFF01" stroke-width="3" stroke-linecap="round" stroke-linejoin="round"/>
<path fill-rule="evenodd" clip-rule="evenodd" d="M67.1559 237.96C67.1559 243.847 62.3851 248.615 56.5008 248.615C50.6165 248.615 45.8457 243.847 45.8457 237.96C45.8457 232.073 50.6165 227.305 56.5008 227.305C62.3851 227.305 67.1559 232.073 67.1559 237.96Z" stroke="#DBFF01" stroke-width="3" stroke-linecap="round" stroke-linejoin="round"/>
<path d="M127.471 262.819V209.643" stroke="#DBFF01" stroke-width="3" stroke-linecap="round" stroke-linejoin="round"/>
<path d="M56.4453 227.305V188.48" stroke="#DBFF01" stroke-width="3" stroke-linecap="round" stroke-linejoin="round"/>
<path d="M198.506 227.302V188.48" stroke="#DBFF01" stroke-width="3" stroke-linecap="round" stroke-linejoin="round"/>
<path d="M198.506 101.445V60.7148" stroke="#DBFF01" stroke-width="3" stroke-linecap="round" stroke-linejoin="round"/>
<path d="M56.4453 101.271V60.7148" stroke="#DBFF01" stroke-width="3" stroke-linecap="round" stroke-linejoin="round"/>
</svg>
