<svg width="271" height="330" viewBox="0 0 271 330" fill="none" xmlns="http://www.w3.org/2000/svg">
<g clip-path="url(#clip0_2750_33592)">
<path fill-rule="evenodd" clip-rule="evenodd" d="M148.504 39.281L146.564 76.1312L117.86 59.8389L148.504 39.281Z" stroke="#DBFF01" stroke-width="3" stroke-linecap="round" stroke-linejoin="round"/>
<path d="M109.398 108.175C114.154 110.874 120.198 109.207 122.897 104.451C125.597 99.6953 123.93 93.6516 119.174 90.9522C114.418 88.2528 108.374 89.9198 105.675 94.6757C102.975 99.4315 104.642 105.475 109.398 108.175Z" stroke="#DBFF01" stroke-width="3" stroke-linecap="round" stroke-linejoin="round"/>
<path fill-rule="evenodd" clip-rule="evenodd" d="M220.03 140.606L201.928 156.897L196.136 135.899L220.03 140.606Z" stroke="#DBFF01" stroke-width="3" stroke-linecap="round" stroke-linejoin="round"/>
<path d="M246.946 106.543L226.854 95.1387L215.449 115.232L235.542 126.636L246.946 106.543Z" stroke="#DBFF01" stroke-width="3" stroke-linecap="round" stroke-linejoin="round"/>
<path d="M100.107 300.352C102.909 295.416 105.659 290.571 110.468 286.199C115.278 281.826 121.402 277.118 127.613 272.789C139.51 264.498 159.173 243.683 164.687 236.672C170.201 229.662 194.391 197.495 196.995 192.907C198.269 190.663 201.139 182.974 196.334 178.467C193.13 175.463 189.19 174.313 184.512 175.017" stroke="#DBFF01" stroke-width="3" stroke-linecap="round" stroke-linejoin="round"/>
<path d="M184.434 174.963C185.989 169.282 185.152 164.915 181.922 161.863C178.693 158.81 174.191 157.808 168.415 158.855C170.525 152.532 169.491 147.759 165.314 144.536C161.136 141.313 155.494 141.873 148.388 146.214" stroke="#DBFF01" stroke-width="3" stroke-linecap="round" stroke-linejoin="round"/>
<path d="M148.389 146.212C183.073 100.953 201.511 76.4087 203.704 72.5793C206.992 66.8346 201.57 59.5722 193.874 63.65C186.178 67.7278 171.929 82.8552 157.097 97.562C142.266 112.269 130.214 123.967 107.668 149.19C100.842 156.827 90.3177 169.867 80.5059 185.9" stroke="#DBFF01" stroke-width="3" stroke-linecap="round" stroke-linejoin="round"/>
<path d="M116.918 138.404C106.437 143.53 103.222 143.122 93.0527 153.906C82.883 164.69 76.1868 173.367 70.5406 183.315C64.8943 193.262 56.6792 234.226 52.0894 240.964C50.413 243.425 47.0375 246.832 41.9629 251.185" stroke="#DBFF01" stroke-width="3" stroke-linecap="round" stroke-linejoin="round"/>
<path d="M41.9678 251.187C31.0093 259.765 49.0826 283.346 65.3223 292.563C81.562 301.781 93.1443 306.346 100.11 300.353" stroke="#DBFF01" stroke-width="3" stroke-linecap="round" stroke-linejoin="round"/>
<path d="M193.131 87.3735C204.547 92.1057 217.965 87.6961 224.222 76.6724C230.995 64.7397 226.812 49.5757 214.88 42.8027C202.947 36.0297 187.783 40.2125 181.01 52.1452C176.917 59.3562 176.825 67.7471 180.026 74.7533" stroke="#DBFF01" stroke-width="3" stroke-linecap="round" stroke-linejoin="round"/>
</g>
<defs>
<clipPath id="clip0_2750_33592">
<rect width="141.924" height="297.05" fill="white" transform="translate(147.572 0.802734) rotate(29.5791)"/>
</clipPath>
</defs>
</svg>
