<svg width="215" height="260" viewBox="0 0 215 260" fill="none" xmlns="http://www.w3.org/2000/svg">
<path fill-rule="evenodd" clip-rule="evenodd" d="M4.29883 4.12695C22.8363 8.78905 40.0908 11.1201 56.0622 11.1201C72.0336 11.1201 87.9966 8.78905 103.951 4.12695C118.936 8.78905 135.777 11.1201 154.474 11.1201C173.171 11.1201 191.878 8.78905 210.597 4.12695C205.935 29.3128 203.604 52.6705 203.604 74.2001C203.604 95.7296 205.935 117.245 210.597 138.745C205.935 156.241 203.604 175.083 203.604 195.272C203.604 215.46 205.935 235.663 210.597 255.88C188.875 251.218 170.168 248.887 154.474 248.887C138.78 248.887 123.104 251.218 107.448 255.88C90.4444 251.218 73.3159 248.887 56.0622 248.887C38.8085 248.887 21.5541 251.218 4.29883 255.88C8.96093 234.331 11.292 214.128 11.292 195.272C11.292 176.415 8.96093 157.573 4.29883 138.745C8.96093 119.058 11.292 97.5432 11.292 74.2001C11.292 50.857 8.96093 27.4993 4.29883 4.12695Z" stroke="#DBFF01" stroke-width="3" stroke-linecap="round" stroke-linejoin="round"/>
<path d="M186.119 35.5938H28.7734V224.409H186.119V35.5938Z" stroke="#DBFF01" stroke-width="3" stroke-linecap="round" stroke-linejoin="round"/>
<path d="M172.131 49.5781H42.7578V210.421H172.131V49.5781Z" stroke="#DBFF01" stroke-width="3" stroke-linecap="round" stroke-linejoin="round"/>
<path fill-rule="evenodd" clip-rule="evenodd" d="M70.582 168.11H144.327L120.255 110.773L102.202 149.57L92.3093 129.999L70.582 168.11Z" stroke="#DBFF01" stroke-width="3" stroke-linecap="round" stroke-linejoin="round"/>
<path d="M120.254 110.774V85.5195L107.445 93.9073L120.254 101.127" stroke="#DBFF01" stroke-width="3" stroke-linecap="round" stroke-linejoin="round"/>
</svg>
