<svg width="250" height="206" viewBox="0 0 250 206" fill="none" xmlns="http://www.w3.org/2000/svg">
<path fill-rule="evenodd" clip-rule="evenodd" d="M126.423 84.5918C120.216 84.5918 114.01 87.001 107.803 91.8194L107.804 91.8842C107.417 92.2357 107.07 92.6417 106.773 93.0986C103.052 98.8381 99.6958 104.737 96.7059 110.794L95.6827 112.885C90.769 123.017 88.8563 128.356 88.433 130.545L88.319 131.263C88.0135 133.683 88.3091 137.361 91.3404 138.553C94.6907 139.869 98.3586 136.926 99.5455 134.612L99.929 133.813C101.123 131.195 103.127 125.864 107.529 116.853L108.39 115.108L107.844 198.05C107.822 201.3 110.32 203.98 113.509 204.236L114.01 204.256C117.51 204.256 120.419 201.558 120.68 198.067L124.354 149.06H127.881L132.098 198.072C132.399 201.57 135.326 204.256 138.837 204.256C142.265 204.256 145.044 201.478 145.044 198.05L145.043 115.662L146.126 117.877C150.67 127.278 152.504 132.453 153.612 134.612C154.799 136.926 158.467 139.869 161.817 138.553C165.167 137.236 165.176 132.881 164.724 130.545L164.551 129.792C163.839 127.051 161.595 121.213 156.451 110.794C153.445 104.703 149.991 98.7771 146.09 93.0155C145.787 92.5675 145.434 92.1707 145.043 91.8283L145.044 91.8194L144.688 91.5396L145.044 91.8194C138.837 87.001 132.63 84.5918 126.423 84.5918Z" stroke="#DBFF01" stroke-width="3" stroke-linecap="round" stroke-linejoin="round"/>
<path d="M126.579 78.4548C118.954 78.4548 112.772 72.273 112.772 64.6473C112.772 57.0217 118.954 50.8398 126.579 50.8398C134.205 50.8398 140.387 57.0217 140.387 64.6473C140.387 72.273 134.205 78.4548 126.579 78.4548Z" stroke="#DBFF01" stroke-width="3" stroke-linecap="round" stroke-linejoin="round"/>
<path d="M96.2379 153.123C75.3671 154.599 44.0587 160.393 2.3125 170.504V1.74609C43.4832 11.9738 84.4817 17.0877 125.308 17.0877C166.134 17.0877 206.958 11.9738 247.779 1.74609V170.504C207.115 160.542 176.57 154.792 156.142 153.254" stroke="#DBFF01" stroke-width="3" stroke-linecap="round" stroke-linejoin="round"/>
<path d="M172.264 141.675C185.678 143.98 201.959 147.477 221.107 152.168V20.084C189.157 28.0891 157.205 32.0916 125.251 32.0916C93.2969 32.0916 61.208 28.0891 28.9844 20.084V152.168C49.103 147.295 66.1243 143.704 80.0483 141.393" stroke="#DBFF01" stroke-width="3" stroke-linecap="round" stroke-linejoin="round"/>
</svg>
