<svg width="204" height="211" viewBox="0 0 204 211" fill="none" xmlns="http://www.w3.org/2000/svg">
<path fill-rule="evenodd" clip-rule="evenodd" d="M120.471 48.1777L159.427 105.306L120.471 162.435L82.1885 105.306L120.471 48.1777Z" stroke="#DBFF01" stroke-width="3" stroke-linecap="round" stroke-linejoin="round"/>
<path d="M32.5566 136.134C49.5587 136.134 63.3417 122.351 63.3417 105.349C63.3417 88.3464 49.5587 74.5635 32.5566 74.5635C15.5544 74.5635 1.77148 88.3464 1.77148 105.349C1.77148 122.351 15.5544 136.134 32.5566 136.134Z" stroke="#DBFF01" stroke-width="3" stroke-linecap="round" stroke-linejoin="round"/>
<path d="M171.09 63.5702C188.092 63.5702 201.875 49.7872 201.875 32.7851C201.875 15.783 188.092 2 171.09 2C154.088 2 140.305 15.783 140.305 32.7851C140.305 49.7872 154.088 63.5702 171.09 63.5702Z" stroke="#DBFF01" stroke-width="3" stroke-linecap="round" stroke-linejoin="round"/>
<path d="M171.09 208.7C188.092 208.7 201.875 194.917 201.875 177.915C201.875 160.913 188.092 147.13 171.09 147.13C154.088 147.13 140.305 160.913 140.305 177.915C140.305 194.917 154.088 208.7 171.09 208.7Z" stroke="#DBFF01" stroke-width="3" stroke-linecap="round" stroke-linejoin="round"/>
<path d="M82.032 105.35H64.4062" stroke="#DBFF01" stroke-width="3" stroke-linecap="round" stroke-linejoin="round"/>
<path d="M152.399 58.0713L140.305 76.0384" stroke="#DBFF01" stroke-width="3" stroke-linecap="round" stroke-linejoin="round"/>
<path d="M152.399 152.628L140.305 134.661" stroke="#DBFF01" stroke-width="3" stroke-linecap="round" stroke-linejoin="round"/>
</svg>
