<svg width="32" height="33" viewBox="0 0 32 33" fill="none" xmlns="http://www.w3.org/2000/svg">
<path fill-rule="evenodd" clip-rule="evenodd" d="M16.0009 1.125C7.72213 1.125 1.00085 7.84628 1.00085 16.125C1.00085 24.4037 7.72213 31.125 16.0009 31.125C24.2796 31.125 31.0009 24.4037 31.0009 16.125C31.0009 7.84628 24.2796 1.125 16.0009 1.125ZM13.2934 9.78484C12.9871 9.58609 12.5946 9.57234 12.2734 9.74734C11.9509 9.92234 11.7509 10.2586 11.7509 10.6248V21.6248C11.7509 21.9911 11.9509 22.3273 12.2734 22.5023C12.5946 22.6773 12.9871 22.6636 13.2934 22.4648L21.7932 16.9647C22.0782 16.7797 22.2507 16.4634 22.2507 16.1247C22.2507 15.7859 22.0782 15.4697 21.7932 15.2847L13.2934 9.78484Z" fill="#DBFF01"/>
</svg>
