<svg width="163" height="21" viewBox="0 0 163 21" fill="none" xmlns="http://www.w3.org/2000/svg">
<path d="M26.0245 0.812486H0.345131V4.2364H11.4729V20.5H14.8968V4.2364H26.0245V0.812486ZM54.9982 16.4341C54.9982 14.7935 54.1422 13.5095 52.8226 12.7962C54.1422 12.0829 54.9982 10.7989 54.9982 9.15828V6.16235C54.9982 3.20209 52.6086 0.812486 49.6483 0.812486H29.0335V20.5H32.4574V14.5081H51.5743V20.5H54.9982V16.4341ZM32.4574 11.0842V4.2364H51.5743V11.0842H32.4574ZM62.4111 0.812486H58.9872V20.5H62.4111V0.812486ZM100.886 0.812486L88.6884 18.1817L76.4551 0.812486H72.1395L85.0149 18.8237C85.8352 19.965 87.1548 20.821 88.6528 20.821C90.1864 20.821 91.4704 19.965 92.2907 18.8237L105.202 0.812486H100.886ZM132.075 17.0761H109.535V12.3682H132.075V8.94429H109.535V4.2364H132.075V0.812486H111.46C108.5 0.812486 106.111 3.20209 106.111 6.16235V15.1501C106.111 18.1104 108.5 20.5 111.46 20.5H132.075V17.0761ZM162.029 16.4341C162.029 14.7935 161.173 13.5095 159.853 12.7962C161.173 12.0829 162.029 10.7989 162.029 9.15828V6.16235C162.029 3.20209 159.639 0.812486 156.679 0.812486H136.064V20.5H139.488V14.5081H158.605V20.5H162.029V16.4341ZM139.488 11.0842V4.2364H158.605V11.0842H139.488Z" fill="white"/>
<path d="M93.1553 0.812486L80.9576 18.1817L68.7242 0.812486H64.4087L77.284 18.8237C78.1043 19.965 79.424 20.821 80.9219 20.821C82.4556 20.821 83.7395 19.965 84.5598 18.8237L97.4709 0.812486H93.1553Z" fill="#DBFF01"/>
</svg>
