<svg width="163" height="21" viewBox="0 0 163 21" fill="none" xmlns="http://www.w3.org/2000/svg">
<path d="M26.6065 0.312486H0.927162V3.7364H12.0549V20H15.4788V3.7364H26.6065V0.312486ZM55.5802 15.9341C55.5802 14.2935 54.7243 13.0095 53.4046 12.2962C54.7243 11.5829 55.5802 10.2989 55.5802 8.65828V5.66235C55.5802 2.70209 53.1906 0.312486 50.2304 0.312486H29.6155V20H33.0395V14.0081H52.1563V20H55.5802V15.9341ZM33.0395 10.5842V3.7364H52.1563V10.5842H33.0395ZM62.9931 0.312486H59.5692V20H62.9931V0.312486ZM93.7373 0.312486L81.5396 17.6817L69.3063 0.312486H64.9907L77.8661 18.3237C78.6864 19.465 80.006 20.321 81.504 20.321C83.0376 20.321 84.3216 19.465 85.1419 18.3237L98.0529 0.312486H93.7373ZM101.468 0.312486L89.2705 17.6817L77.0371 0.312486H72.7215L85.5969 18.3237C86.4172 19.465 87.7368 20.321 89.2348 20.321C90.7684 20.321 92.0524 19.465 92.8727 18.3237L105.784 0.312486H101.468ZM132.657 16.5761H110.117V11.8682H132.657V8.44429H110.117V3.7364H132.657V0.312486H112.043C109.082 0.312486 106.693 2.70209 106.693 5.66235V14.6501C106.693 17.6104 109.082 20 112.043 20H132.657V16.5761ZM162.611 15.9341C162.611 14.2935 161.755 13.0095 160.435 12.2962C161.755 11.5829 162.611 10.2989 162.611 8.65828V5.66235C162.611 2.70209 160.221 0.312486 157.261 0.312486H136.646V20H140.07V14.0081H159.187V20H162.611V15.9341ZM140.07 10.5842V3.7364H159.187V10.5842H140.07Z" fill="#030A0F"/>
</svg>
