<svg width="331" height="41" viewBox="0 0 331 41" fill="none" xmlns="http://www.w3.org/2000/svg">
<path d="M53.3282 0.357666H0.964355V7.33951H23.6554V40.5033H30.6372V7.33951H53.3282V0.357666Z" fill="white"/>
<path d="M112.41 32.2123C112.41 28.8669 110.664 26.2487 107.973 24.7941C110.664 23.3396 112.41 20.7214 112.41 17.3759V11.2668C112.41 5.23042 107.537 0.357666 101.501 0.357666H59.464V40.5033H66.4459V28.2851H105.428V40.5033H112.41V32.2123ZM66.4459 21.3032V7.33951H105.428V21.3032H66.4459Z" fill="white"/>
<path d="M127.526 0.357666H120.544V40.5033H127.526V0.357666Z" fill="white"/>
<path d="M269.581 33.5214H223.617V23.9214H269.581V16.9396H223.617V7.33951H269.581V0.357666H227.544C221.508 0.357666 216.635 5.23042 216.635 11.2668V29.5942C216.635 35.6305 221.508 40.5033 227.544 40.5033H269.581V33.5214Z" fill="white"/>
<path d="M330.661 32.2123C330.661 28.8669 328.915 26.2487 326.224 24.7941C328.915 23.3396 330.661 20.7214 330.661 17.3759V11.2668C330.661 5.23042 325.788 0.357666 319.751 0.357666H277.715V40.5033H284.697V28.2851H323.679V40.5033H330.661V32.2123ZM284.697 21.3032V7.33951H323.679V21.3032H284.697Z" fill="white"/>
<path d="M205.814 0.357666L181.262 35.3184L156.639 0.357666H147.953L173.868 36.6106C175.519 38.9078 178.175 40.6307 181.191 40.6307C184.277 40.6307 186.862 38.9078 188.513 36.6106L214.5 0.357666H205.814Z" fill="white"/>
<path d="M190.253 0.357666L165.701 35.3184L141.078 0.357666H132.392L158.307 36.6106C159.958 38.9078 162.614 40.6307 165.63 40.6307C168.716 40.6307 171.301 38.9078 172.952 36.6106L198.939 0.357666H190.253Z" fill="#DBFF01"/>
</svg>
